<?xml version="1.0" standalone="no"?>
<!DOCTYPE svg PUBLIC "-//W3C//DTD SVG 20010904//EN"
 "http://www.w3.org/TR/2001/REC-SVG-20010904/DTD/svg10.dtd">
<svg version="1.0" xmlns="http://www.w3.org/2000/svg"
 width="1280.000000pt" height="914.000000pt" viewBox="0 0 1280.000000 914.000000"
 preserveAspectRatio="xMidYMid meet">
<metadata>
Created by potrace 1.15, written by Peter Selinger 2001-2017
</metadata>
<g transform="translate(0.000000,914.000000) scale(0.100000,-0.100000)"
fill="#000000" stroke="none">
<path d="M7113 9126 c-208 -40 -401 -143 -539 -288 -115 -122 -198 -267 -246
-433 -20 -69 -23 -102 -23 -250 0 -203 15 -268 100 -440 243 -490 849 -685
1332 -430 473 250 661 820 428 1300 -127 264 -377 462 -665 530 -99 23 -294
28 -387 11z"/>
<path d="M675 8259 c-183 -27 -369 -128 -506 -277 -115 -125 -162 -265 -162
-492 -1 -119 3 -161 22 -235 92 -363 405 -696 801 -853 74 -29 149 -50 263
-72 88 -17 329 -15 410 5 135 32 278 98 378 176 l36 28 64 -37 c35 -21 132
-83 214 -138 83 -56 233 -147 335 -204 207 -115 461 -265 774 -454 122 -73
233 -133 265 -142 59 -18 132 -14 179 8 25 12 27 18 30 89 l3 77 37 -8 c277
-61 534 -80 1069 -80 398 0 487 6 713 46 106 19 161 29 275 49 302 53 529 111
659 167 147 65 306 191 352 280 30 57 44 123 44 203 0 131 -40 228 -125 303
-59 52 -119 72 -214 72 -161 -1 -284 -42 -631 -210 -343 -166 -614 -260 -965
-334 -559 -117 -1148 -124 -1725 -20 -309 56 -337 66 -660 249 -143 80 -473
285 -518 321 -2 1 8 58 22 126 38 185 38 198 22 294 -23 131 -49 213 -104 327
-64 133 -125 220 -239 338 -205 212 -458 346 -743 394 -92 16 -280 18 -375 4z"/>
<path d="M9655 7039 c-327 -33 -544 -138 -585 -283 -17 -60 -8 -105 36 -196
54 -110 163 -215 266 -258 129 -54 308 -100 648 -169 179 -36 336 -67 350 -70
57 -12 220 -57 290 -80 107 -35 343 -155 422 -213 122 -90 223 -238 264 -385
24 -89 29 -285 10 -445 -48 -416 -164 -747 -372 -1063 -41 -61 -74 -113 -74
-114 0 -2 15 -3 33 -3 55 0 133 47 236 144 54 50 138 127 186 171 230 207 417
502 514 808 72 227 95 388 88 622 -9 298 -56 463 -185 645 -56 79 -193 222
-287 300 -213 174 -539 338 -905 454 -387 122 -668 162 -935 135z"/>
<path d="M1010 5879 c-112 -44 -182 -110 -234 -219 -28 -59 -31 -74 -31 -166
0 -96 2 -103 38 -176 178 -361 702 -282 770 117 29 171 -68 351 -230 428 -59
27 -81 32 -163 34 -78 3 -105 -1 -150 -18z m198 -263 c90 -47 103 -158 27
-225 -65 -57 -166 -36 -206 41 -23 44 -24 79 -5 116 16 30 53 66 76 75 28 10
81 7 108 -7z"/>
<path d="M9199 4462 c-81 -21 -169 -73 -218 -129 -64 -72 -117 -202 -142 -349
-20 -121 -6 -487 25 -669 99 -573 279 -1159 514 -1670 111 -242 211 -433 258
-492 224 -280 528 -462 1004 -602 144 -42 216 -59 740 -176 184 -41 477 -107
650 -146 371 -83 459 -99 560 -99 91 0 130 10 178 47 l36 27 -40 18 c-21 9
-172 61 -334 114 -782 255 -865 286 -1195 449 -310 153 -486 265 -665 427
-374 336 -507 746 -550 1683 -32 717 -52 921 -112 1113 -42 136 -134 285 -215
350 -132 103 -333 146 -494 104z"/>
<path d="M8106 4400 c-114 -18 -213 -53 -371 -129 -247 -120 -476 -266 -775
-495 -114 -86 -1280 -1008 -1785 -1411 -49 -39 -472 -375 -940 -745 -467 -371
-1050 -834 -1295 -1029 -460 -368 -556 -439 -672 -497 -37 -19 -68 -38 -67
-42 0 -4 13 -17 29 -30 l28 -22 109 39 c329 119 474 191 1313 653 355 196 875
480 1155 633 1237 673 1963 1075 2845 1572 729 411 876 512 983 671 111 166
133 305 72 465 -78 208 -154 293 -311 347 -69 24 -227 34 -318 20z"/>
</g>
</svg>
